<?xml version="1.0" encoding="UTF-8" standalone="no"?>
<!DOCTYPE svg PUBLIC "-//W3C//DTD SVG 1.1//EN"
 "http://www.w3.org/Graphics/SVG/1.1/DTD/svg11.dtd">
<!-- Generated by graphviz version 2.26.3 (20100126.1600)
 -->
<!-- Title: g Pages: 1 -->
<svg width="228pt" height="214pt"
 viewBox="0.00 0.00 228.00 214.00" xmlns="http://www.w3.org/2000/svg" xmlns:xlink="http://www.w3.org/1999/xlink">
<g id="graph1" class="graph" transform="scale(1 1) rotate(0) translate(4 210)">
<title>g</title>
<polygon fill="white" stroke="white" points="-4,5 -4,-210 225,-210 225,5 -4,5"/>
<!-- N0 -->
<g id="node1" class="node"><title>N0</title>
<polygon fill="#ffffff" stroke="#ffffff" stroke-width="1.5" points="12,-169 42,-169 54,-181 54,-193 42,-205 12,-205 0,-193 0,-181 12,-169"/>
<path fill="#ffffff" stroke="#ffffff" stroke-width="1.5" d="M42,-169C48,-169 54,-175 54,-181"/>
<path fill="#ffffff" stroke="#ffffff" stroke-width="1.5" d="M54,-193C54,-199 48,-205 42,-205"/>
<path fill="#ffffff" stroke="#ffffff" stroke-width="1.5" d="M12,-205C6,-205 0,-199 0,-193"/>
<path fill="#ffffff" stroke="#ffffff" stroke-width="1.5" d="M0,-181C0,-175 6,-169 12,-169"/>
<polyline fill="none" stroke="#2e3436" stroke-width="1.5" points="12,-169 42,-169 "/>
<path fill="none" stroke="#2e3436" stroke-width="1.5" d="M42,-169C48,-169 54,-175 54,-181"/>
<polyline fill="none" stroke="#2e3436" stroke-width="1.5" points="54,-181 54,-193 "/>
<path fill="none" stroke="#2e3436" stroke-width="1.5" d="M54,-193C54,-199 48,-205 42,-205"/>
<polyline fill="none" stroke="#2e3436" stroke-width="1.5" points="42,-205 12,-205 "/>
<path fill="none" stroke="#2e3436" stroke-width="1.5" d="M12,-205C6,-205 0,-199 0,-193"/>
<polyline fill="none" stroke="#2e3436" stroke-width="1.5" points="0,-193 0,-181 "/>
<path fill="none" stroke="#2e3436" stroke-width="1.5" d="M0,-181C0,-175 6,-169 12,-169"/>
<text text-anchor="middle" x="27" y="-193.8" font-family="FreeSans" font-size="8.00" fill="#1c2021">Node[0]</text>
<polyline fill="none" stroke="#2e3436" stroke-width="1.5" points="0,-187 54,-187 "/>
<text text-anchor="middle" x="27" y="-175.8" font-family="FreeSans" font-size="8.00" fill="#1c2021"> </text>
</g>
<!-- N35 -->
<g id="node2" class="node"><title>N35</title>
<polygon fill="#ffffff" stroke="#ffffff" stroke-width="1.5" points="94.5,-85 125.5,-85 137.5,-97 137.5,-109 125.5,-121 94.5,-121 82.5,-109 82.5,-97 94.5,-85"/>
<path fill="#ffffff" stroke="#ffffff" stroke-width="1.5" d="M125.5,-85C131.5,-85 137.5,-91 137.5,-97"/>
<path fill="#ffffff" stroke="#ffffff" stroke-width="1.5" d="M137.5,-109C137.5,-115 131.5,-121 125.5,-121"/>
<path fill="#ffffff" stroke="#ffffff" stroke-width="1.5" d="M94.5,-121C88.5,-121 82.5,-115 82.5,-109"/>
<path fill="#ffffff" stroke="#ffffff" stroke-width="1.5" d="M82.5,-97C82.5,-91 88.5,-85 94.5,-85"/>
<polyline fill="none" stroke="#2e3436" stroke-width="1.5" points="94.5,-85 125.5,-85 "/>
<path fill="none" stroke="#2e3436" stroke-width="1.5" d="M125.5,-85C131.5,-85 137.5,-91 137.5,-97"/>
<polyline fill="none" stroke="#2e3436" stroke-width="1.5" points="137.5,-97 137.5,-109 "/>
<path fill="none" stroke="#2e3436" stroke-width="1.5" d="M137.5,-109C137.5,-115 131.5,-121 125.5,-121"/>
<polyline fill="none" stroke="#2e3436" stroke-width="1.5" points="125.5,-121 94.5,-121 "/>
<path fill="none" stroke="#2e3436" stroke-width="1.5" d="M94.5,-121C88.5,-121 82.5,-115 82.5,-109"/>
<polyline fill="none" stroke="#2e3436" stroke-width="1.5" points="82.5,-109 82.5,-97 "/>
<path fill="none" stroke="#2e3436" stroke-width="1.5" d="M82.5,-97C82.5,-91 88.5,-85 94.5,-85"/>
<text text-anchor="middle" x="110" y="-109.8" font-family="FreeSans" font-size="8.00" fill="#1c2021">Node[35]</text>
<polyline fill="none" stroke="#2e3436" stroke-width="1.5" points="82.5,-103 137.5,-103 "/>
<text text-anchor="middle" x="110" y="-91.8" font-family="FreeSans" font-size="8.00" fill="#1c2021"> </text>
</g>
<!-- N36 -->
<g id="node4" class="node"><title>N36</title>
<polygon fill="#ffffff" stroke="#ffffff" stroke-width="1.5" points="53.5,-1 84.5,-1 96.5,-13 96.5,-25 84.5,-37 53.5,-37 41.5,-25 41.5,-13 53.5,-1"/>
<path fill="#ffffff" stroke="#ffffff" stroke-width="1.5" d="M84.5,-1C90.5,-1 96.5,-7 96.5,-13"/>
<path fill="#ffffff" stroke="#ffffff" stroke-width="1.5" d="M96.5,-25C96.5,-31 90.5,-37 84.5,-37"/>
<path fill="#ffffff" stroke="#ffffff" stroke-width="1.5" d="M53.5,-37C47.5,-37 41.5,-31 41.5,-25"/>
<path fill="#ffffff" stroke="#ffffff" stroke-width="1.5" d="M41.5,-13C41.5,-7 47.5,-1 53.5,-1"/>
<polyline fill="none" stroke="#2e3436" stroke-width="1.5" points="53.5,-1 84.5,-1 "/>
<path fill="none" stroke="#2e3436" stroke-width="1.5" d="M84.5,-1C90.5,-1 96.5,-7 96.5,-13"/>
<polyline fill="none" stroke="#2e3436" stroke-width="1.5" points="96.5,-13 96.5,-25 "/>
<path fill="none" stroke="#2e3436" stroke-width="1.5" d="M96.5,-25C96.5,-31 90.5,-37 84.5,-37"/>
<polyline fill="none" stroke="#2e3436" stroke-width="1.5" points="84.5,-37 53.5,-37 "/>
<path fill="none" stroke="#2e3436" stroke-width="1.5" d="M53.5,-37C47.5,-37 41.5,-31 41.5,-25"/>
<polyline fill="none" stroke="#2e3436" stroke-width="1.5" points="41.5,-25 41.5,-13 "/>
<path fill="none" stroke="#2e3436" stroke-width="1.5" d="M41.5,-13C41.5,-7 47.5,-1 53.5,-1"/>
<text text-anchor="middle" x="69" y="-25.8" font-family="FreeSans" font-size="8.00" fill="#1c2021">Node[36]</text>
<polyline fill="none" stroke="#2e3436" stroke-width="1.5" points="41.5,-19 96.5,-19 "/>
<text text-anchor="middle" x="69" y="-7.8" font-family="FreeSans" font-size="8.00" fill="#1c2021"> </text>
</g>
<!-- N35&#45;&gt;N36 -->
<g id="edge2" class="edge"><title>N35&#45;&gt;N36</title>
<path fill="none" stroke="#2e3436" stroke-width="2" d="M101.104,-84.7733C95.3011,-72.8851 87.6492,-57.2081 81.2714,-44.1413"/>
<polygon fill="#2e3436" stroke="#2e3436" points="77.879,-37.1912 84.2018,-42.4508 79.9733,-40.3419 81.6182,-43.7119 81.1688,-43.9312 80.7195,-44.1505 79.0746,-40.7805 78.1358,-45.4116 77.879,-37.1912 77.879,-37.1912"/>
<text text-anchor="middle" x="102" y="-58.8" font-family="FreeSans" font-size="8.00" fill="#2e3436">LIKES</text>
</g>
<!-- N38 -->
<g id="node6" class="node"><title>N38</title>
<polygon fill="#ffffff" stroke="#ffffff" stroke-width="1.5" points="136.5,-1 167.5,-1 179.5,-13 179.5,-25 167.5,-37 136.5,-37 124.5,-25 124.5,-13 136.5,-1"/>
<path fill="#ffffff" stroke="#ffffff" stroke-width="1.5" d="M167.5,-1C173.5,-1 179.5,-7 179.5,-13"/>
<path fill="#ffffff" stroke="#ffffff" stroke-width="1.5" d="M179.5,-25C179.5,-31 173.5,-37 167.5,-37"/>
<path fill="#ffffff" stroke="#ffffff" stroke-width="1.5" d="M136.5,-37C130.5,-37 124.5,-31 124.5,-25"/>
<path fill="#ffffff" stroke="#ffffff" stroke-width="1.5" d="M124.5,-13C124.5,-7 130.5,-1 136.5,-1"/>
<polyline fill="none" stroke="#2e3436" stroke-width="1.5" points="136.5,-1 167.5,-1 "/>
<path fill="none" stroke="#2e3436" stroke-width="1.5" d="M167.5,-1C173.5,-1 179.5,-7 179.5,-13"/>
<polyline fill="none" stroke="#2e3436" stroke-width="1.5" points="179.5,-13 179.5,-25 "/>
<path fill="none" stroke="#2e3436" stroke-width="1.5" d="M179.5,-25C179.5,-31 173.5,-37 167.5,-37"/>
<polyline fill="none" stroke="#2e3436" stroke-width="1.5" points="167.5,-37 136.5,-37 "/>
<path fill="none" stroke="#2e3436" stroke-width="1.5" d="M136.5,-37C130.5,-37 124.5,-31 124.5,-25"/>
<polyline fill="none" stroke="#2e3436" stroke-width="1.5" points="124.5,-25 124.5,-13 "/>
<path fill="none" stroke="#2e3436" stroke-width="1.5" d="M124.5,-13C124.5,-7 130.5,-1 136.5,-1"/>
<text text-anchor="middle" x="152" y="-25.8" font-family="FreeSans" font-size="8.00" fill="#1c2021">Node[38]</text>
<polyline fill="none" stroke="#2e3436" stroke-width="1.5" points="124.5,-19 179.5,-19 "/>
<text text-anchor="middle" x="152" y="-7.8" font-family="FreeSans" font-size="8.00" fill="#1c2021"> </text>
</g>
<!-- N35&#45;&gt;N38 -->
<g id="edge4" class="edge"><title>N35&#45;&gt;N38</title>
<path fill="none" stroke="#4e9a06" stroke-width="2" d="M119.113,-84.7733C125.057,-72.8851 132.896,-57.2081 139.429,-44.1413"/>
<polygon fill="#4e9a06" stroke="#4e9a06" points="142.904,-37.1912 142.569,-45.4088 141.675,-40.7689 139.997,-44.123 139.55,-43.8994 139.103,-43.6758 140.78,-40.3217 136.532,-42.39 142.904,-37.1912 142.904,-37.1912"/>
<text text-anchor="middle" x="146" y="-58.8" font-family="FreeSans" font-size="8.00" fill="#4e9a06">HATES</text>
</g>
<!-- N37 -->
<g id="node7" class="node"><title>N37</title>
<polygon fill="#ffffff" stroke="#ffffff" stroke-width="1.5" points="94.5,-169 125.5,-169 137.5,-181 137.5,-193 125.5,-205 94.5,-205 82.5,-193 82.5,-181 94.5,-169"/>
<path fill="#ffffff" stroke="#ffffff" stroke-width="1.5" d="M125.5,-169C131.5,-169 137.5,-175 137.5,-181"/>
<path fill="#ffffff" stroke="#ffffff" stroke-width="1.5" d="M137.5,-193C137.5,-199 131.5,-205 125.5,-205"/>
<path fill="#ffffff" stroke="#ffffff" stroke-width="1.5" d="M94.5,-205C88.5,-205 82.5,-199 82.5,-193"/>
<path fill="#ffffff" stroke="#ffffff" stroke-width="1.5" d="M82.5,-181C82.5,-175 88.5,-169 94.5,-169"/>
<polyline fill="none" stroke="#2e3436" stroke-width="1.5" points="94.5,-169 125.5,-169 "/>
<path fill="none" stroke="#2e3436" stroke-width="1.5" d="M125.5,-169C131.5,-169 137.5,-175 137.5,-181"/>
<polyline fill="none" stroke="#2e3436" stroke-width="1.5" points="137.5,-181 137.5,-193 "/>
<path fill="none" stroke="#2e3436" stroke-width="1.5" d="M137.5,-193C137.5,-199 131.5,-205 125.5,-205"/>
<polyline fill="none" stroke="#2e3436" stroke-width="1.5" points="125.5,-205 94.5,-205 "/>
<path fill="none" stroke="#2e3436" stroke-width="1.5" d="M94.5,-205C88.5,-205 82.5,-199 82.5,-193"/>
<polyline fill="none" stroke="#2e3436" stroke-width="1.5" points="82.5,-193 82.5,-181 "/>
<path fill="none" stroke="#2e3436" stroke-width="1.5" d="M82.5,-181C82.5,-175 88.5,-169 94.5,-169"/>
<text text-anchor="middle" x="110" y="-193.8" font-family="FreeSans" font-size="8.00" fill="#1c2021">Node[37]</text>
<polyline fill="none" stroke="#2e3436" stroke-width="1.5" points="82.5,-187 137.5,-187 "/>
<text text-anchor="middle" x="110" y="-175.8" font-family="FreeSans" font-size="8.00" fill="#1c2021"> </text>
</g>
<!-- N37&#45;&gt;N35 -->
<g id="edge6" class="edge"><title>N37&#45;&gt;N35</title>
<path fill="none" stroke="#2e3436" stroke-width="2" d="M110,-168.773C110,-157.105 110,-141.787 110,-128.87"/>
<polygon fill="#2e3436" stroke="#2e3436" points="110,-121.191 113.375,-128.691 110.5,-124.941 110.5,-128.691 110,-128.691 109.5,-128.691 109.5,-124.941 106.625,-128.691 110,-121.191 110,-121.191"/>
<text text-anchor="middle" x="122" y="-142.8" font-family="FreeSans" font-size="8.00" fill="#2e3436">LIKES</text>
</g>
<!-- N39 -->
<g id="node9" class="node"><title>N39</title>
<polygon fill="#ffffff" stroke="#ffffff" stroke-width="1.5" points="177.5,-169 208.5,-169 220.5,-181 220.5,-193 208.5,-205 177.5,-205 165.5,-193 165.5,-181 177.5,-169"/>
<path fill="#ffffff" stroke="#ffffff" stroke-width="1.5" d="M208.5,-169C214.5,-169 220.5,-175 220.5,-181"/>
<path fill="#ffffff" stroke="#ffffff" stroke-width="1.5" d="M220.5,-193C220.5,-199 214.5,-205 208.5,-205"/>
<path fill="#ffffff" stroke="#ffffff" stroke-width="1.5" d="M177.5,-205C171.5,-205 165.5,-199 165.5,-193"/>
<path fill="#ffffff" stroke="#ffffff" stroke-width="1.5" d="M165.5,-181C165.5,-175 171.5,-169 177.5,-169"/>
<polyline fill="none" stroke="#2e3436" stroke-width="1.5" points="177.5,-169 208.5,-169 "/>
<path fill="none" stroke="#2e3436" stroke-width="1.5" d="M208.5,-169C214.5,-169 220.5,-175 220.5,-181"/>
<polyline fill="none" stroke="#2e3436" stroke-width="1.5" points="220.5,-181 220.5,-193 "/>
<path fill="none" stroke="#2e3436" stroke-width="1.5" d="M220.5,-193C220.5,-199 214.5,-205 208.5,-205"/>
<polyline fill="none" stroke="#2e3436" stroke-width="1.5" points="208.5,-205 177.5,-205 "/>
<path fill="none" stroke="#2e3436" stroke-width="1.5" d="M177.5,-205C171.5,-205 165.5,-199 165.5,-193"/>
<polyline fill="none" stroke="#2e3436" stroke-width="1.5" points="165.5,-193 165.5,-181 "/>
<path fill="none" stroke="#2e3436" stroke-width="1.5" d="M165.5,-181C165.5,-175 171.5,-169 177.5,-169"/>
<text text-anchor="middle" x="193" y="-193.8" font-family="FreeSans" font-size="8.00" fill="#1c2021">Node[39]</text>
<polyline fill="none" stroke="#2e3436" stroke-width="1.5" points="165.5,-187 220.5,-187 "/>
<text text-anchor="middle" x="193" y="-175.8" font-family="FreeSans" font-size="8.00" fill="#1c2021"> </text>
</g>
</g>
</svg>
